<svg height="28" viewBox="0 0 238.7 28.3" width="239" xmlns="http://www.w3.org/2000/svg"><path d="m40.2 25.8c1.3-.6 2.4-1.5 3.2-2.9 2-3.2 1.3-7.4-1.5-9.2-2.8-1.9-6.7-.7-8.7 2.5s-1.3 7.2 1.3 9.1c-4.9-.3-10.1-.5-15.1-.5.5-.5.9-1 1.3-1.6 2.2-3.5 1.5-8-1.6-10.1-3.2-2-7.5-.8-9.8 2.7-1.9 3.1-1.6 6.8.5 9.1-3.3.2-6.3.4-9 .7l1.3 2.6c6-1.3 36.7-3.5 50.9-.5-3.6-.7-8-1.4-12.8-1.9zm-4.9-9.2c1.6-2.5 4.3-3.3 6.2-2.1 1.9 1.3 2.3 4.1.7 6.7-1.6 2.5-4.4 3.6-6.3 2.3s-2.2-4.4-.6-6.9zm-23.7-.4c1.8-2.8 4.9-3.7 7-2.3 2.2 1.4 2.6 4.5.8 7.3s-5 3.9-7.1 2.5c-2.1-1.3-2.5-4.7-.7-7.5z" fill="#e89723"/><path d="m3.1 21.9-.9-2.6h1.5c1-.1 1.3-.9 1.1-2l-.9-6.7 3.8-.3c.8-.1 1.5-.4 2.3-2.1l2.3-4.8c4-.7 15.8 0 19.3.3l4.8 5.2c1 1.1 2.1 1.3 2.1 1.3l11.6 3.9-2.1 8.7 4.8 1.1-3.3-1.4 3.2-7.1c.4-1.6 0-3.1-2.2-3.7l-11.6-3.8-5.2-6c-.5-.5-.8-1-2.5-1.1-6.9-.5-14.4-1.1-18.3-.6-1.7.2-2.8.6-3.7 2.8l-1.8 4.6-4-.1c-2.7-.1-3.4 2-2.8 3.7l2.3 6.7-2.9.4z" fill="#e89723"/><g fill="#c32032"><path d="m136.6 23.3-1 3.7c-.1.4-.1.4-.5.4h-2.2c-.3 0-.4-.1-.4-.3 0 0 0-.1.1-.3l4.4-14.6c.1-.4.1-.4.5-.4h2.3c.4 0 .4 0 .5.4l4.4 14.6c0 .1.1.2.1.3 0 .2-.1.3-.4.3h-2.5c-.4 0-.4 0-.5-.4l-1-3.7zm3.2-2.2-.8-3.9c-.2-.9-.3-1.3-.6-3.1-.2 1.3-.3 1.8-.6 3.1l-.9 3.9z"/><path d="m148.2 11.8c.4 0 .5.1.5.5v9.8c0 1.4.1 1.9.4 2.4.4.6 1 .8 1.9.8 1.8 0 2.5-.9 2.5-3.1v-9.9c0-.4.1-.5.5-.5h2c .4 0 .5 0 .5.5v9.8c0 1.9-.3 2.9-1.1 3.9-1.1 1.2-2.5 1.7-4.5 1.7s-3.5-.6-4.3-1.9c-.6-.9-.8-1.9-.8-3.7v-9.8c0-.4 0-.5.5-.5z"/><path d="m166.7 11.8h-8.8c-.4 0-.5.1-.5.5v1.8c0 .4 0 .5.5.5h2.8v12.3c0 .4 0 .5.5.5h2.2c.4 0 .5 0 .5-.5v-12.4h2.8c.4 0 .5 0 .5-.5v-1.7c0-.4 0-.5-.5-.5z"/><path d="m177 13.1c1.1 1.3 1.7 3.4 1.7 6.4 0 3.1-.6 5.2-1.8 6.6-.9 1.1-2.2 1.7-3.9 1.7-3.8 0-5.5-2.7-5.5-8.5 0-1.9.4-3.9.9-4.9.9-1.8 2.7-2.9 4.7-2.9 1.6 0 3 .6 3.9 1.6zm-6.2 6.4c0 3.9.8 5.8 2.3 5.8 1.6 0 2.3-1.9 2.3-5.7s-.8-5.7-2.3-5.7-2.3 2-2.3 5.6z"/><path d="m185.8 17.9c.1.4.4 1.6.6 2.6.4-1.4.5-1.9.8-2.6l1.9-5.7c.1-.3.1-.4.5-.4h2.1c.4 0 .5.1.5.5l.7 14.6v.2c0 .2-.1.3-.5.3h-2c-.4 0-.5-.1-.5-.5l-.2-8v-.8c0-.4 0-.4 0-2.5-.3 1.5-.6 2.6-.8 3.3l-1.4 4.6c-.1.3-.1.4-.5.4h-1.4c-.4 0-.4 0-.5-.4l-1.3-4.4c-.1-.5-.6-2.3-.8-3.5v2.8.7l-.2 7.7c0 .4-.1.5-.5.5h-1.8c-.3 0-.5-.1-.5-.3v-.1l.7-14.6c0-.4.1-.5.5-.5h2.2c.3 0 .4 0 .5.4z"/><path d="m204 13.1c1.1 1.3 1.7 3.4 1.7 6.4 0 3.1-.6 5.2-1.8 6.6-.9 1.1-2.2 1.7-3.9 1.7-3.8 0-5.5-2.7-5.5-8.5 0-1.9.4-3.9.9-4.9.9-1.8 2.7-2.9 4.7-2.9 1.5 0 3 .6 3.9 1.6zm-6.3 6.4c0 3.9.8 5.8 2.3 5.8 1.6 0 2.3-1.9 2.3-5.7s-.8-5.7-2.3-5.7c-1.4 0-2.3 2-2.3 5.6z"/><path d="m211.6 11.8c2.1 0 2.8.1 3.6.6 1 .6 1.6 1.9 1.6 3.4 0 1-.3 1.9-.9 2.5-.3.4-.7.6-1.4.9 1.8.5 2.8 1.9 2.8 3.7 0 1.6-.9 3.2-2.1 3.9-.7.4-1.6.5-3.5.5h-3.8c-.4 0-.5 0-.5-.5v-14.5c0-.4.1-.5.5-.5zm-1.2 6.5h.9c.9 0 1.3-.1 1.7-.4.5-.3.8-1 .8-1.8s-.3-1.4-.8-1.8c-.3-.2-.7-.3-1.4-.3h-1.2zm0 6.6h1.1c2 0 2.8-.6 2.8-2.1 0-1.6-.8-2.2-2.8-2.2h-1.1z"/><path d="m222.7 26.9c0 .4-.1.5-.5.5h-2.1c-.4 0-.5 0-.5-.5v-14.6c0-.4 0-.5.5-.5h2.1c.4 0 .5.1.5.5z"/><path d="m238.7 26.9c0 .4-.1.5-.5.5h-2.1c-.4 0-.5 0-.5-.5v-14.6c0-.4 0-.5.5-.5h2.1c.4 0 .5.1.5.5z"/><path d="m233.7 24.6h-5.4v-12.3c0-.4-.1-.5-.5-.5h-2.1c-.4 0-.5 0-.5.5v14.6c0 .4 0 .5.5.5h8.1c.4 0 .4 0 .4-.4v-1.9c0-.5-.1-.5-.5-.5z"/></g><path d="m59.6 26.5c0 .4-.1.5-.5.5h-2.1c-.4 0-.5 0-.5-.5v-14.2c0-.4 0-.5.5-.5h3.6c1.7 0 2.6.2 3.4.6 1.1.6 1.8 2 1.8 3.6 0 3-2 4.9-5 4.9h-1.2zm.7-8c1.9 0 2.6-.6 2.6-2.3 0-1.6-.6-2.1-2.4-2.1h-.9v4.3h.7z" fill="#e89723"/><path d="m75.8 13.1c1.1 1.3 1.6 3.3 1.6 6.2 0 3-.6 5.1-1.7 6.5-.9 1.1-2.2 1.6-3.8 1.6-3.7 0-5.4-2.6-5.4-8.3 0-1.9.3-3.8.9-4.8.9-1.8 2.6-2.8 4.6-2.8 1.6 0 3 .6 3.8 1.6zm-6 6.3c0 3.8.7 5.6 2.3 5.6 1.5 0 2.3-1.9 2.3-5.6s-.7-5.6-2.3-5.6c-1.5.1-2.3 2-2.3 5.6z" fill="#e89723"/><path d="m87.6 24.3h-5.3v-12c0-.4-.1-.5-.5-.5h-2.1c-.4 0-.5 0-.5.5v14.2c0 .4 0 .5.5.5h7.8c.4 0 .4 0 .4-.4v-1.9c.1-.4.1-.4-.3-.4z" fill="#e89723"/><path d="m97.7 13.1c1.1 1.3 1.6 3.3 1.6 6.2 0 3-.5 5.1-1.7 6.5-.9 1.1-2.2 1.6-3.8 1.6-3.7 0-5.4-2.6-5.4-8.3 0-1.9.4-3.8.9-4.8.9-1.8 2.6-2.8 4.6-2.8 1.5 0 3 .6 3.8 1.6zm-6.1 6.3c0 3.8.7 5.6 2.3 5.6 1.5 0 2.3-1.9 2.3-5.6s-.7-5.6-2.3-5.6c-1.5.1-2.3 2-2.3 5.6z" fill="#e89723"/><path d="m104.7 21c .1.3.2 1 .3 1.4.1.6.2 1.2.3 1.9.3-1.5.4-1.9.7-3.3l2-8.8c.1-.3.2-.4.4-.4h2.4c.3 0 .4.1.3.4l-4.1 14.7c-.1.3-.2.4-.5.4h-2.6c-.4 0-.4 0-.5-.4l-4-14.6c-.1-.2 0-.4.4-.4h2.6c.2 0 .3 0 .4.4z" fill="#e89723"/><path d="m118.5 18.7c.5 1 1 2.3 1.4 3.4 0-1.7 0-1.9 0-2.8v-7c0-.4.1-.5.5-.5h1.6c.4 0 .5 0 .5.5v14.2c0 .4 0 .5-.5.5h-1.4c-.4 0-.4 0-.7-.4l-3.8-7.1c-.7-1.4-1-2.1-1.4-3.1.1 1.5.1 1.5.1 2.7v7.5c0 .4-.1.5-.5.5h-1.6c-.4 0-.5 0-.5-.5v-14.2c0-.4 0-.5.5-.5h1.7c.4 0 .4 0 .6.4z" fill="#e89723"/><path d="m127.8 26.5c0 .4-.1.5-.5.5h-2.1c-.4 0-.5 0-.5-.5v-14.2c0-.4 0-.5.5-.5h2.1c.4 0 .5.1.5.5z" fill="#e89723"/></svg>